# AST/ASF file generated using VICON BodyLanguage
# -----------------------------------------------
:version 1.10
:name VICON
:units
  mass 1.0
  length 0.45
  angle deg
:documentation
   .ast/.asf automatically generated from VICON data using
   VICON BodyBuilder and BodyLanguage model FoxedUp or BRILLIANT.MOD
:root
   order TX TY TZ RX RY RZ
   axis XYZ
   position 0 0 0  
   orientation 0 0 0 
:bonedata
  begin
     id 1 
     name lhipjoint
     direction 0.440178 -0.822639 0.359871 
     length 2.53113 
     axis 0 0 0  XYZ
  end
  begin
     id 2 
     name lfemur
     direction 0.34202 -0.939693 0  
     length 7.88132  
     axis 0 0 20  XYZ
    dof rx ry rz
    limits (-160.0 20.0)
           (-70.0 70.0)
           (-60.0 70.0)
  end
  begin
     id 3 
     name ltibia
     direction 0.34202 -0.939693 0   
     length 8.43783   
     axis 0 0 20   XYZ
    dof rx
    limits (-10.0 170.0)
  end
  begin
     id 4 
     name lfoot
     direction 0.0886351 -0.243523 0.965837   
     length 2.63414   
     axis -90 7.62852e-016 20   XYZ
    dof rx rz
    limits (-45.0 90.0)
           (-70.0 20.0)
  end
  begin
     id 5 
     name ltoes
     direction 1.53703e-011 -4.21717e-011 1   
     length 1.31427   
     axis -90 7.62852e-016 20   XYZ
    dof rx
    limits (-90.0 20.0)
  end
  begin
     id 6 
     name rhipjoint
     direction -0.399779 -0.839773 0.367367   
     length 2.47948  
     axis 0 0 0  XYZ 
  end
  begin
     id 7 
     name rfemur
     direction -0.34202 -0.939693 0   
     length 7.74806   
     axis 0 0 -20   XYZ
    dof rx ry rz
    limits (-160.0 20.0)
           (-70.0 70.0)
           (-70.0 60.0)
  end
  begin
     id 8 
     name rtibia
     direction -0.34202 -0.939693 0   
     length 8.74432   
     axis 0 0 -20   XYZ
    dof rx
    limits (-10.0 170.0)
 end
 begin
     id 9 
     name rfoot
     direction -0.108514 -0.298139 0.948334   
     length 2.66102  
     axis -90 -7.62852e-016 -20   XYZ
    dof rx rz
    limits (-45.0 90.0)
           (-20.0 70.0)
  end
  begin
     id 10 
     name rtoes
     direction -1.53392e-011 -4.22077e-011 1   
     length 1.31983   
     axis -90 -7.62852e-016 -20   XYZ
    dof rx
    limits (-90.0 20.0)
  end
  begin
     id 11 
     name lowerback
     direction 0.0113257 0.999866 0.0118602   
     length 2.58694   
     axis 0 0 0   XYZ
    dof rx ry rz
    limits (-20.0 45.0)
           (-30.0 30.0)
           (-30.0 30.0)
  end
  begin
     id 12 
     name upperback
     direction -0.0164747 0.995193 -0.0965375   
     length 2.52368   
     axis 0 0 0   XYZ
    dof rx ry rz
    limits (-20.0 45.0)
           (-30.0 30.0)
           (-30.0 30.0)
  end
  begin
     id 13 
     name thorax
     direction -0.0194301 0.99433 -0.104552   
     length 2.56099   
     axis 0 0 0   XYZ
    dof rx ry rz
    limits (-20.0 45.0)
           (-30.0 30.0)
           (-30.0 30.0)
  end
  begin
     id 14 
     name lowerneck
     direction 0.0148543 0.995587 -0.092657   
     length 1.71582   
     axis 0 0 0   XYZ
    dof rx ry rz
    limits (-20.0 45.0)
           (-30.0 30.0)
           (-30.0 30.0)
  end
  begin
     id 15 
     name upperneck
     direction -0.0135467 0.993656 -0.111639   
     length 1.68937   
     axis 0 0 0   XYZ
    dof rx ry rz
    limits (-20.0 45.0)
           (-30.0 30.0)
           (-30.0 30.0)
  end
  begin
     id 16
     name head
     direction -0.00615349 0.999547 -0.029448  
     length 1.7462  
     axis 0 0 0   XYZ
    dof rx ry rz
    limits (-20.0 45.0)
           (-30.0 30.0)
           (-30.0 30.0)
  end
  begin
     id 17 
     name lclavicle
     direction 0.988267 0.149885 0.0293713  
     length 4.47222  
     axis 0 0 0   XYZ
    dof ry rz
    limits (-20.0 10.0)
           (0.0 20.0)
  end
  begin
     id 18 
     name lhumerus
     direction 1 -4.48986e-011 -1.14833e-027   
     length 5.37148   
     axis 180 -30 -90   XYZ
    dof rx ry rz
    limits (-60.0 90.0)
           (-90.0 90.0)
           (-90.0 90.0)
  end
  begin
     id 19
     name lradius
     direction 0.999998 0.00170963 -0.000987055   
     length 3.94212   
     axis 180 -30 -90   XYZ
    dof rx
    limits (-10.0 170.0)
  end
  begin
     id 20
     name lwrist
     direction 0.999998 7.53149e-005 -0.00194706   
     length 1.97106   
     axis 4.65056e-015 90 90   XYZ
    dof ry
    limits (-180.0 0.0)
 end
  begin
     id 21 
     name lhand
     direction 1 -4.48973e-011 -1.31746e-026   
     length 1.17917   
     axis 8.4065e-015 90 90   XYZ
    dof rx rz
    limits (-90.0 90.0)
           (-45.0 45.0)
  end
  begin
     id 22 
     name lfingers
     direction 1 -4.49107e-011 -2.63492e-026   
     length 0.950679   
     axis 1.6813e-014 90 90   XYZ
    dof rx
    limits (0.0 90.0)
  end
  begin
     id 23
     name lthumb
     direction 0.707107 -6.35048e-011 0.707107   
     length 1.36499   
     axis -90 45 2.85299e-015   XYZ
    dof rx rz
    limits (-45.0 45.0)
           (-45.0 45.0)
  end
  begin
     id 24 
     name rclavicle
     direction -0.996699 0.0642895 -0.0495725   
     length 4.62611  
     axis 0 0 0   XYZ 
    dof ry rz
    limits (-10.0 20.0)
           (-20.0 0.0)
  end
  begin
     id 25 
     name rhumerus
     direction -1 -4.48919e-011 -2.41059e-027  
     length 5.4981   
     axis 180 30 90   XYZ
    dof rx ry rz
    limits (-90.0 60.0)
           (-90.0 90.0)
           (-90.0 90.0)
  end
  begin
     id 26 
     name rradius
     direction -0.999999 0.00118101 -0.000681858   
     length 3.48381   
     axis 180 30 90   XYZ
    dof rx
    limits (-10.0 170.0)
  end
  begin
     id 27 
     name rwrist
     direction -0.999999 0.000321823 -0.00132288   
     length 1.7419   
     axis 4.65056e-015 -90 -90   XYZ
    dof ry
    limits (-180.0 0.0)
  end
  begin
     id 28
     name rhand
     direction -1 -4.49022e-011 -1.31746e-026   
     length 1.34932   
     axis 8.4065e-015 -90 -90   XYZ
    dof rx rz
    limits (-90.0 90.0)
           (-45.0 45.0)
  end
  begin
     id 29
     name rfingers
     direction -1 -4.49178e-011 -2.63492e-026   
     length 1.08785   
     axis 1.6813e-014 -90 -90   XYZ
    dof rx
    limits (0.0 90.0)
  end
  begin
     id 30
     name rthumb
     direction -0.707107 -6.34713e-011 0.707107   
     length 1.56195   
     axis -90 -45 -2.85299e-015   XYZ
    dof rx rz
    limits (-45.0 45.0)
           (-45.0 45.0)
  end
:hierarchy
  begin
    root lhipjoint rhipjoint lowerback
    lhipjoint lfemur
    lfemur ltibia
    ltibia lfoot
    lfoot ltoes
    rhipjoint rfemur
    rfemur rtibia
    rtibia rfoot
    rfoot rtoes
    lowerback upperback
    upperback thorax
    thorax lowerneck lclavicle rclavicle
    lowerneck upperneck
    upperneck head
    lclavicle lhumerus
    lhumerus lradius
    lradius lwrist
    lwrist lhand lthumb
    lhand lfingers
    rclavicle rhumerus
    rhumerus rradius
    rradius rwrist
    rwrist rhand rthumb
    rhand rfingers
  end

#!OML:ASF X:\für Bonn\!DataBase\2005_08_10_Bjorn_Final\c3d\bjorn.ASF
:FULLY-SPECIFIED
:DEGREES
1
root 2.03816 17.494 4.22937 -170.923 -27.2005 173.377
lowerback 8.2997 -0.327958 -5.05443
upperback 14.1513 -2.42142 -2.26152
thorax 10.6146 -2.38086 0.19269
lowerneck -8.72304 -2.47653 -5.87124
upperneck -0.662541 -2.90516 1.91728
head 1.40422 -1.47555 1.50107
rclavicle 5.48646e-014 1.19271e-014
rhumerus -34.597 -17.1965 -91.4158
rradius 31.4109
rwrist -1.69433
rhand -8.73202 16.1025
rfingers 7.12502
rthumb 17.2044 -13.1558
lclavicle 5.48646e-014 1.19271e-014
lhumerus -5.43258 -46.7937 70.0059
lradius 50.54
lwrist -18.8758
lhand -48.9346 -28.6791
lfingers 7.12502
lthumb -21.5662 0.140126
rfemur -45.3142 -9.61615 10.0314
rtibia 64.1552
rfoot -22.8358 -1.55407
rtoes -22.5926
lfemur -5.39108 9.40529 -16.5806
ltibia 42.7782
lfoot -31.1544 5.13433
ltoes -35.7241
2
root 2.04765 17.4714 4.26276 -170.426 -27.4125 173.343
lowerback 8.26553 -0.186145 -5.13708
upperback 14.2062 -2.22969 -2.32163
thorax 10.6913 -2.29413 0.170452
lowerneck -8.70754 -2.7938 -6.04294
upperneck -0.91202 -3.32967 2.71631
head 1.36338 -1.66955 1.77419
rclavicle 7.55382e-015 -2.0276e-014
rhumerus -34.1758 -16.2727 -91.9364
rradius 31.4078
rwrist -1.52714
rhand -8.60496 15.5522
rfingers 7.12502
rthumb 17.3267 -13.6955
lclavicle 7.55382e-015 -2.0276e-014
lhumerus -4.20765 -45.9451 69.8063
lradius 50.9831
lwrist -19.5102
lhand -48.8932 -28.9289
lfingers 7.12502
lthumb -21.5264 -0.105182
rfemur -46.1387 -9.71795 9.95862
rtibia 64.5455
rfoot -22.6986 -1.32988
rtoes -21.871
lfemur -6.07296 9.42931 -16.6913
ltibia 42.8164
lfoot -31.5155 5.53873
ltoes -36.35
3
root 2.0595 17.46 4.28702 -170.024 -27.7044 173.299
lowerback 8.33766 -0.0682966 -5.21295
upperback 14.2503 -2.07861 -2.39968
thorax 10.6941 -2.22563 0.130415
lowerneck -8.42725 -3.07598 -6.19605
upperneck -1.23546 -3.72046 3.53424
head 1.2553 -1.84829 2.05671
rclavicle 5.1684e-014 2.8625e-014
rhumerus -33.9344 -15.4107 -92.4114
rradius 31.488
rwrist -1.22217
rhand -8.65204 15.2829
rfingers 7.12502
rthumb 17.2814 -13.9687
lclavicle 5.1684e-014 2.8625e-014
lhumerus -3.30408 -45.125 69.8108
lradius 51.6208
lwrist -19.7091
lhand -48.686 -29.3317
lfingers 7.12502
lthumb -21.3274 -0.485339
rfemur -46.726 -9.84243 9.86983
rtibia 64.8098
rfoot -22.5342 -1.12729
rtoes -21.2253
lfemur -6.56088 9.46176 -16.7372
ltibia 42.7023
lfoot -31.6958 5.86246
ltoes -37.0056
4
root 2.07799 17.4583 4.30532 -169.72 -28.0852 173.246
lowerback 8.58422 0.0516111 -5.29556
upperback 14.2764 -1.94057 -2.47416
thorax 10.575 -2.16394 0.106567
lowerneck -7.98197 -3.35597 -6.38495
upperneck -1.58566 -4.11053 4.42521
head 1.11749 -2.02918 2.3758
rclavicle 2.38542e-014 -4.92986e-014
rhumerus -33.8619 -14.6014 -92.8427
rradius 31.6827
rwrist -0.887053
rhand -8.88487 15.2037
rfingers 7.12502
rthumb 17.0573 -14.0675
lclavicle 2.38542e-014 -4.92986e-014
lhumerus -2.57344 -44.4304 69.9587
lradius 52.3004
lwrist -19.6368
lhand -48.469 -29.5451
lfingers 7.12502
lthumb -21.119 -0.675261
rfemur -47.1037 -9.96258 9.77444
rtibia 64.9628
rfoot -22.3521 -0.975081
rtoes -20.6488
lfemur -6.88238 9.3995 -16.7308
ltibia 42.4423
lfoot -31.6962 6.1274
ltoes -37.5559
5
root 2.10084 17.467 4.31813 -169.512 -28.5453 173.217
lowerback 8.98691 0.158963 -5.33724
upperback 14.2892 -1.83384 -2.54131
thorax 10.35 -2.11339 0.0746545
lowerneck -7.51938 -3.63499 -6.51317
upperneck -1.89938 -4.50174 5.2341
head 0.988655 -2.21643 2.6613
rclavicle -1.15295e-014 2.38542e-015
rhumerus -33.926 -13.7999 -93.2386
rradius 31.9612
rwrist -0.57672
rhand -9.11459 15.0789
rfingers 7.12502
rthumb 16.8361 -14.2113
lclavicle -1.15295e-014 2.38542e-015
lhumerus -2.01361 -43.8303 70.2124
lradius 53.085
lwrist -19.4958
lhand -48.2297 -29.3036
lfingers 7.12502
lthumb -20.8891 -0.408294
rfemur -47.2987 -10.0665 9.69836
rtibia 65.0022
rfoot -22.1054 -0.937932
rtoes -20.1726
lfemur -7.05849 9.22398 -16.6529
ltibia 42.0638
lfoot -31.6027 6.242
ltoes -37.9452
6
root 2.12603 17.4852 4.32416 -169.355 -29.0423 173.191
lowerback 9.42305 0.286446 -5.36731
upperback 14.3177 -1.70701 -2.60823
thorax 10.1242 -2.05357 0.0354166
lowerneck -7.0235 -3.92887 -6.50311
upperneck -2.23435 -4.9221 5.95777
head 0.845546 -2.4248 2.89609
rclavicle -1.66979e-014 3.97569e-014
rhumerus -34.0621 -13.2367 -93.5643
rradius 32.2717
rwrist -0.161472
rhand -9.28813 15.0473
rfingers 7.12502
rthumb 16.6691 -14.257
lclavicle -1.66979e-014 3.97569e-014
lhumerus -1.50741 -43.3774 70.4869
lradius 53.9633
lwrist -19.3839
lhand -48.0645 -28.6302
lfingers 7.12502
lthumb -20.7304 0.282531
rfemur -47.3667 -10.1642 9.62109
rtibia 64.9448
rfoot -21.8363 -0.952051
rtoes -19.8473
lfemur -7.13829 8.99539 -16.5393
ltibia 41.6136
lfoot -31.4423 6.1836
ltoes -38.0971
7
root 2.15189 17.5134 4.3245 -169.273 -29.6127 173.174
lowerback 9.87237 0.420817 -5.33951
upperback 14.4105 -1.58307 -2.67438
thorax 9.96578 -1.99658 -0.040887
lowerneck -6.60934 -4.24025 -6.36539
upperneck -2.58275 -5.36839 6.59872
head 0.709929 -2.65202 3.08033
rclavicle 3.97569e-014 -4.41302e-014
rhumerus -34.2013 -12.8767 -93.8381
rradius 32.6003
rwrist 0.262245
rhand -9.37405 15.0792
rfingers 7.12502
rthumb 16.5864 -14.232
lclavicle 3.97569e-014 -4.41302e-014
lhumerus -0.959754 -43.0108 70.734
lradius 54.907
lwrist -19.2246
lhand -48.0257 -27.99
lfingers 7.12502
lthumb -20.6931 0.926779
rfemur -47.2656 -10.3191 9.55552
rtibia 64.7714
rfoot -21.5233 -0.940011
rtoes -19.6512
lfemur -7.12809 8.69275 -16.3788
ltibia 41.1399
lfoot -31.1352 6.01486
ltoes -38.2495
8
root 2.17852 17.5546 4.31873 -169.018 -30.2145 173.1
lowerback 10.1795 0.512457 -5.36911
upperback 14.4924 -1.49985 -2.72722
thorax 9.88223 -1.96295 -0.0764858
lowerneck -6.44018 -4.53623 -6.27283
upperneck -2.83098 -5.78037 7.22876
head 0.650476 -2.862 3.26776
rclavicle 1.98785e-015 -3.77691e-014
rhumerus -34.3128 -12.583 -94.0423
rradius 32.9232
rwrist 0.720643
rhand -9.34127 15.2067
rfingers 7.12502
rthumb 16.6179 -14.1019
lclavicle 1.98785e-015 -3.77691e-014
lhumerus -0.433522 -42.6623 71.0055
lradius 55.8896
lwrist -18.9338
lhand -48.2232 -27.5159
lfingers 7.12502
lthumb -20.8828 1.38012
rfemur -47.2513 -10.4963 9.46066
rtibia 64.4797
rfoot -21.1265 -0.880098
rtoes -19.4011
lfemur -7.2899 8.3129 -16.2818
ltibia 40.6648
lfoot -30.6593 5.70109
ltoes -38.316
9
root 2.20698 17.6056 4.30775 -168.58 -30.848 173.015
lowerback 10.4133 0.522427 -5.36968
upperback 14.5105 -1.50206 -2.79416
thorax 9.76854 -1.95859 -0.140012
lowerneck -6.59188 -4.81186 -6.30609
upperneck -2.87911 -6.14921 7.89858
head 0.71754 -3.04416 3.48693
rclavicle -3.02153e-014 -6.52014e-014
rhumerus -34.3401 -12.1826 -94.25
rradius 33.107
rwrist 1.14809
rhand -9.31783 15.3902
rfingers 7.12502
rthumb 16.6405 -13.9164
lclavicle -3.02153e-014 -6.52014e-014
lhumerus 0.0171691 -42.297 71.3353
lradius 56.8141
lwrist -18.517
lhand -48.6009 -27.2624
lfingers 7.12502
lthumb -21.2457 1.59326
rfemur -47.368 -10.686 9.39833
rtibia 64.0618
rfoot -20.6373 -0.772665
rtoes -19.1017
lfemur -7.65624 7.95017 -16.1849
ltibia 40.192
lfoot -30.0122 5.29646
ltoes -38.4434
10
root 2.23793 17.6661 4.28697 -168.227 -31.5722 173.014
lowerback 10.7164 0.523761 -5.26434
upperback 14.5258 -1.51615 -2.84509
thorax 9.60963 -1.94952 -0.241377
lowerneck -6.91639 -5.10315 -6.25884
upperneck -2.78115 -6.54458 8.52211
head 0.862911 -3.23532 3.66842
rclavicle 8.34896e-015 5.1684e-014
rhumerus -34.3874 -11.8537 -94.4589
rradius 33.2556
rwrist 1.53456
rhand -9.35312 15.6121
rfingers 7.12502
rthumb 16.6065 -13.6974
lclavicle 8.34896e-015 5.1684e-014
lhumerus 0.507137 -42.1321 71.6557
lradius 57.6167
lwrist -18.0026
lhand -49.1058 -27.0619
lfingers 7.12502
lthumb -21.7306 1.73838
rfemur -47.3292 -10.8326 9.41398
rtibia 63.5179
rfoot -20.1492 -0.571417
rtoes -18.7346
lfemur -7.95817 7.55462 -15.9371
ltibia 39.7018
lfoot -29.3155 4.71763
ltoes -38.4331
11
root 2.27059 17.7327 4.25621 -167.883 -32.3505 172.945
lowerback 11.093 0.530919 -5.18328
upperback 14.5237 -1.52715 -2.89972
thorax 9.39014 -1.93977 -0.329311
lowerneck -7.29107 -5.41193 -6.17307
upperneck -2.6028 -6.97052 9.09276
head 1.04546 -3.43833 3.82002
rclavicle -1.11319e-014 3.97569e-016
rhumerus -34.5671 -11.559 -94.6422
rradius 33.4826
rwrist 1.82162
rhand -9.41438 15.8217
rfingers 7.12502
rthumb 16.5475 -13.4927
lclavicle -1.11319e-014 3.97569e-016
lhumerus 0.94869 -42.1593 72.0345
lradius 58.3241
lwrist -17.4443
lhand -49.6239 -26.831
lfingers 7.12502
lthumb -22.228 1.91085
rfemur -47.1319 -10.9259 9.33233
rtibia 62.86
rfoot -19.6437 -0.158274
rtoes -17.9437
lfemur -8.19598 7.15481 -15.6737
ltibia 39.1799
lfoot -28.5807 3.75005
ltoes -37.8114
12
root 2.30287 17.8054 4.2198 -167.458 -33.1712 172.892
lowerback 11.3515 0.520352 -5.04096
upperback 14.5175 -1.54113 -2.93686
thorax 9.23181 -1.92358 -0.435869
lowerneck -7.62917 -5.72521 -6.1075
upperneck -2.47888 -7.40587 9.66185
head 1.20894 -3.64647 3.97497
rclavicle -1.94809e-014 5.76476e-014
rhumerus -34.7541 -11.225 -94.8152
rradius 33.7005
rwrist 2.01325
rhand -9.80176 16.2572
rfingers 7.12502
rthumb 16.1745 -13.0879
lclavicle -1.94809e-014 5.76476e-014
lhumerus 1.34792 -42.2722 72.4349
lradius 59.0969
lwrist -16.979
lhand -50.143 -26.4961
lfingers 7.12502
lthumb -22.7264 2.18544
rfemur -46.9663 -10.9951 9.26106
rtibia 62.0995
rfoot -19.0919 0.442554
rtoes -17.0376
lfemur -8.53869 6.71648 -15.3695
ltibia 38.6335
lfoot -27.736 2.58521
ltoes -36.6717
13
root 2.33512 17.8839 4.17837 -166.885 -34.009 172.825
lowerback 11.4676 0.49564 -4.84927
upperback 14.4852 -1.54658 -2.99129
thorax 9.12113 -1.89208 -0.591507
lowerneck -7.9389 -6.04665 -6.01995
upperneck -2.38748 -7.85844 10.2268
head 1.36045 -3.86372 4.1233
rclavicle -8.07066e-014 -5.96354e-015
rhumerus -34.9262 -11.0102 -94.9738
rradius 33.8399
rwrist 2.23474
rhand -10.0956 16.6439
rfingers 7.12502
rthumb 15.8916 -12.724
lclavicle -8.07066e-014 -5.96354e-015
lhumerus 1.76046 -42.4979 72.7849
lradius 59.8703
lwrist -16.6746
lhand -50.8403 -26.3152
lfingers 7.12502
lthumb -23.3954 2.28272
rfemur -46.945 -11.0804 9.23405
rtibia 61.266
rfoot -18.4868 1.11749
rtoes -16.9086
lfemur -9.04616 6.33752 -15.0589
ltibia 38.0954
lfoot -26.7952 1.23654
ltoes -35.099
